<svg width="9" height="9" viewBox="0 0 9 9" fill="none" xmlns="http://www.w3.org/2000/svg">
<path d="M8.79822 7.10246L7.40832 5.7124C7.13147 5.43667 6.67301 5.44505 6.38653 5.73164L5.68628 6.43173C5.64204 6.40734 5.59625 6.38187 5.54811 6.35485C5.10591 6.10984 4.50069 5.77402 3.86383 5.13668C3.22507 4.49801 2.88894 3.89186 2.64317 3.44938C2.61724 3.4025 2.59239 3.3573 2.56785 3.31438L3.03782 2.84511L3.26887 2.61378C3.5558 2.32677 3.56371 1.86844 3.28751 1.59191L1.89761 0.20169C1.62141 -0.0744557 1.16274 -0.0660782 0.875815 0.220927L0.484091 0.6149L0.494796 0.625527C0.363446 0.793128 0.253686 0.98643 0.172005 1.19488C0.0967117 1.39331 0.0498342 1.58265 0.0283993 1.77239C-0.155129 3.29388 0.540148 4.6844 2.42704 6.57132C5.0353 9.1794 7.13721 8.98238 7.22789 8.97276C7.42538 8.94915 7.61465 8.90196 7.807 8.82726C8.01364 8.74654 8.20681 8.63693 8.37431 8.50587L8.38287 8.51347L8.77971 8.12488C9.06604 7.83792 9.07429 7.37944 8.79822 7.10246Z" fill="white"/>
</svg>
